<svg width="29" height="28" viewBox="0 0 29 28" fill="none" xmlns="http://www.w3.org/2000/svg">
<path d="M25.0307 12.9641C25.0307 13.2973 24.8981 13.6306 24.6328 13.8764L18.9096 19.1823C18.4307 19.6288 17.8193 19.9102 17.1689 19.9911L11.889 20.6285L11.2614 21.2141L7.58603 17.2541L9.72128 15.274C10.4686 14.585 11.4522 14.2097 12.4649 14.2355L17.3146 14.3455C18.0199 14.3682 18.5925 14.9279 18.6248 15.6364V15.6526C18.5246 16.2091 18.0748 16.7688 17.3081 16.8917L13.7298 17.0082C13.6393 17.0114 13.5681 17.0858 13.5713 17.1764C13.5746 17.2638 13.6457 17.3317 13.7331 17.3317H13.7396L17.3405 17.2121C18.256 17.0696 18.7931 16.4193 18.9322 15.7593L22.9375 12.0485C23.4422 11.5794 24.2316 11.6117 24.7008 12.1165C24.9208 12.3558 25.0307 12.66 25.0307 12.9641Z" fill="#8D8F88"/>
<path d="M11.3137 21.7493L7.07088 17.1732C6.8648 16.951 6.51774 16.9379 6.29555 17.1439L4.47838 18.8287C4.25619 19.0347 4.24308 19.3818 4.44908 19.6039L8.69193 24.1801C8.89792 24.4024 9.24499 24.4155 9.46718 24.2095L11.2843 22.5247C11.5065 22.3187 11.5196 21.9715 11.3137 21.7493ZM9.65935 23.1842C9.53124 23.303 9.36631 23.3675 9.1927 23.3675C9.1837 23.3675 9.17485 23.3673 9.16584 23.367C8.78718 23.3528 8.49067 23.033 8.50488 22.6542C8.51926 22.2754 8.84137 21.9836 9.21782 21.9931C9.5968 22.0075 9.89315 22.3274 9.87878 22.706C9.87199 22.8896 9.79395 23.0594 9.65935 23.1842Z" fill="#8D8F88"/>
<path d="M9.20587 22.3166C9.20129 22.3164 9.19671 22.3164 9.19197 22.3164C8.99766 22.3164 8.8359 22.4707 8.82832 22.6666C8.82089 22.8671 8.97776 23.0364 9.17823 23.044C9.27854 23.0461 9.36843 23.0132 9.43952 22.9472C9.51076 22.8812 9.55215 22.7913 9.55578 22.6943C9.56337 22.4938 9.4065 22.3243 9.20587 22.3166Z" fill="#8D8F88"/>
<path d="M20.5269 8.5535C20.5177 8.56722 20.5084 8.57666 20.4992 8.58565C20.4855 8.59959 20.4763 8.6088 20.4625 8.61802L16.7598 12.3248C16.5037 12.5812 16.0882 12.5813 15.832 12.3251L12.1434 8.63645C12.1342 8.62724 12.125 8.61802 12.1157 8.6088C12.102 8.59509 12.0928 8.58565 12.0836 8.57194C10.7383 7.18701 11.0727 4.77322 13.0692 3.89327C14.1738 3.40643 15.4863 3.71184 16.2737 4.62679C16.2813 4.63567 16.2888 4.64472 16.296 4.654C16.3176 4.62763 16.3405 4.60249 16.3639 4.57796C17.2083 3.69454 18.5079 3.37488 19.6137 3.89509C21.557 4.8093 21.8614 7.18001 20.5269 8.5535Z" fill="#8D8F88"/>
</svg>
