<svg width="20" height="20" viewBox="0 0 20 20" fill="none" xmlns="http://www.w3.org/2000/svg">
<g clip-path="url(#clip0_249_6023)">
<path d="M19.1657 9.177C19.1657 9.47491 19.0471 9.77283 18.8099 9.99264L13.6935 14.736C13.2654 15.1351 12.7188 15.3867 12.1374 15.459L7.41725 16.0288L6.85616 16.5523L3.5705 13.0122L5.47936 11.2421C6.1475 10.626 7.02676 10.2906 7.93208 10.3136L12.2676 10.412C12.8981 10.4323 13.4101 10.9326 13.4389 11.566V11.5805C13.3493 12.078 12.9473 12.5783 12.2618 12.6882L9.06294 12.7924C8.98195 12.7953 8.91833 12.8618 8.92122 12.9428C8.92412 13.0209 8.98774 13.0816 9.06584 13.0816H9.07163L12.2908 12.9746C13.1092 12.8473 13.5893 12.2659 13.7138 11.6759L17.2944 8.35846C17.7456 7.93909 18.4513 7.96804 18.8707 8.41926C19.0674 8.63321 19.1657 8.90514 19.1657 9.177Z" stroke="#000C0B" stroke-linejoin="round"/>
<path d="M7.10279 16.8291L3.30984 12.7381C3.12562 12.5394 2.81534 12.5277 2.61671 12.7119L0.992202 14.218C0.793569 14.4022 0.781848 14.7125 0.966005 14.9111L4.75902 19.0021C4.94318 19.2008 5.25345 19.2125 5.45208 19.0283L7.07659 17.5222C7.27523 17.338 7.28695 17.0277 7.10279 16.8291Z" stroke="#000C0B" stroke-linejoin="round"/>
<path d="M5.25477 16.6604C5.24847 16.6602 5.24218 16.6602 5.23566 16.6602C4.96865 16.6602 4.74636 16.8722 4.73594 17.1414C4.72574 17.4169 4.9413 17.6496 5.21678 17.66C5.35462 17.6629 5.47814 17.6177 5.57583 17.527C5.67373 17.4362 5.73061 17.3127 5.7356 17.1794C5.74602 16.9039 5.53046 16.671 5.25477 16.6604Z" fill="#000C0B"/>
<path d="M14.7608 4.90332C14.7663 4.8971 14.7707 4.88974 14.7764 4.88379C15.7369 3.89508 15.5233 2.18748 14.1055 1.52051C13.3353 1.15816 12.3998 1.3692 11.7745 2.02344C11.7591 2.03948 11.7482 2.05267 11.7393 2.06348C11.643 2.18082 11.4985 2.24788 11.3467 2.24609C11.1948 2.24424 11.0515 2.1735 10.9581 2.05371C10.9571 2.05248 10.9553 2.05035 10.9532 2.04785C10.391 1.39486 9.45318 1.17849 8.66998 1.52344C7.25853 2.14553 6.99474 3.79727 7.85846 4.80469L7.94537 4.90039L7.96783 4.92773M14.7608 4.90332C14.7598 4.90418 14.7588 4.90542 14.7579 4.90625L14.7501 4.91406M14.7608 4.90332C14.7603 4.90379 14.759 4.90413 14.7579 4.90527C14.7565 4.90685 14.7553 4.90856 14.754 4.91016C14.7564 4.90804 14.7593 4.90636 14.7618 4.9043M14.7608 4.90332L14.7618 4.9043M14.7608 4.90332L14.7618 4.9043M14.7608 4.90332C14.771 4.89432 14.7845 4.8843 14.7999 4.87402C14.7863 4.88304 14.7743 4.89402 14.7618 4.9043M14.7501 4.91406L14.7237 4.93652L11.4131 8.25C11.3795 8.28373 11.3248 8.28371 11.2911 8.25L7.96881 4.92773M14.7501 4.91406C14.7494 4.91477 14.7488 4.91624 14.7481 4.91699L14.752 4.91211L14.7501 4.91406ZM7.96881 4.92773H7.96783M7.96881 4.92773H7.96783M7.96881 4.92773C7.96987 4.92887 7.97121 4.93093 7.97272 4.93262C7.97828 4.93886 7.98368 4.94722 7.9903 4.95605C7.98319 4.94627 7.97562 4.93698 7.96783 4.92773" stroke="#000C0B" stroke-linejoin="round"/>
</g>
<defs>
<clipPath id="clip0_249_6023">
<rect width="20" height="20" fill="white"/>
</clipPath>
</defs>
</svg>
