<svg width="25" height="24" viewBox="0 0 25 24" fill="none" xmlns="http://www.w3.org/2000/svg">
<path d="M15.7268 13.7732L17.4108 15.4572L22.3285 10.5395C22.4391 10.4285 22.5008 10.2785 22.5 10.1219C22.4992 9.96562 22.4359 9.81602 22.3242 9.70625L21.9887 9.37773C21.6809 9.07617 21.5102 8.67305 21.5078 8.24219C21.5055 7.81133 21.6723 7.40625 21.977 7.10195C22.2055 6.87305 22.2055 6.50195 21.977 6.27305L18.227 2.52305C17.9981 2.29453 17.627 2.29453 17.3981 2.52305C17.0934 2.82773 16.6887 2.99453 16.2578 2.99219C15.827 2.98984 15.4238 2.81914 15.1223 2.51133L14.7938 2.17578C14.684 2.06406 14.5344 2.00078 14.3781 2H14.375C14.2195 2 14.0707 2.06172 13.9606 2.17148L9.04286 7.08922L10.7268 8.7732C10.9557 9.00203 10.9557 9.37301 10.7268 9.60184C10.6124 9.71625 10.4625 9.77344 10.3125 9.77344C10.1625 9.77344 10.0126 9.71625 9.89821 9.6018L8.21423 7.91781L2.67149 13.4605C2.56094 13.5715 2.49923 13.7215 2.50001 13.8781C2.50079 14.0344 2.56407 14.184 2.67579 14.2937L3.01134 14.6223C3.31915 14.9238 3.48985 15.327 3.49219 15.7578C3.49454 16.1887 3.32774 16.5938 3.02305 16.898C2.79454 17.127 2.79454 17.498 3.02305 17.727L6.77305 21.477C7.00196 21.7055 7.37305 21.7055 7.60196 21.477C7.9043 21.1742 8.30626 21.0078 8.7336 21.0078H8.74219C9.17305 21.0102 9.57618 21.1809 9.87774 21.4887L10.2063 21.8242C10.316 21.9359 10.4656 21.9992 10.6219 22H10.625C10.7805 22 10.9293 21.9383 11.0395 21.8285L16.5822 16.2858L14.8982 14.6018C14.6694 14.373 14.6694 14.002 14.8982 13.7732C15.127 13.5443 15.498 13.5443 15.7268 13.7732ZM6.97684 16.4768C6.86243 16.5912 6.71247 16.6484 6.56251 16.6484C6.41255 16.6484 6.26259 16.5912 6.14821 16.4768C5.91938 16.248 5.91938 15.877 6.14821 15.6482L9.27321 12.5232C9.502 12.2943 9.87301 12.2943 10.1018 12.5232C10.3307 12.752 10.3307 13.123 10.1018 13.3518L6.97684 16.4768ZM10.4143 16.7893L8.85184 18.3518C8.73743 18.4662 8.58747 18.5234 8.43751 18.5234C8.28755 18.5234 8.13759 18.4662 8.02321 18.3518C7.79438 18.123 7.79438 17.752 8.02321 17.5232L9.58571 15.9607C9.8145 15.7318 10.1855 15.7318 10.4143 15.9607C10.6432 16.1895 10.6432 16.5605 10.4143 16.7893ZM13.8518 12.7268C13.7374 12.8412 13.5875 12.8984 13.4375 12.8984C13.2875 12.8984 13.1376 12.8412 13.0232 12.7268L11.7732 11.4768C11.5444 11.248 11.5444 10.877 11.7732 10.6482C12.002 10.4193 12.373 10.4193 12.6018 10.6482L13.8518 11.8982C14.0807 12.127 14.0807 12.498 13.8518 12.7268ZM13.8449 8.6457C13.5382 8.19684 13.4902 7.63734 13.7122 7.16766L13.6427 7.09621C13.417 6.86434 13.4219 6.49336 13.6538 6.26766C13.8856 6.04195 14.2566 6.04684 14.4824 6.27879L14.5627 6.36137C14.65 6.31727 14.7381 6.27836 14.8245 6.24496C15.1943 6.10199 15.5946 6.36953 15.611 6.7657C15.6215 7.01852 15.468 7.25055 15.2299 7.33602C15.0496 7.4007 14.8598 7.50234 14.7769 7.65664C14.7 7.8 14.7847 7.94414 14.8125 7.98477C14.8707 8.06992 14.9382 8.09883 14.9562 8.09648C15.2351 8.06289 15.6383 7.88398 15.9957 7.71328C16.7281 7.36328 17.5312 7.56445 17.9933 8.21367C18.3652 8.73543 18.412 9.39957 18.155 9.95324L18.2213 10.0177C18.4531 10.2435 18.458 10.6145 18.2322 10.8463C18.1174 10.9642 17.9649 11.0234 17.8124 11.0234C17.665 11.0234 17.5176 10.9682 17.4036 10.8573L17.3761 10.8304C17.15 10.9901 16.9031 11.0946 16.5355 11.1715C16.4953 11.1797 16.4547 11.184 16.4152 11.184C16.1437 11.184 15.9 10.9941 15.8422 10.7176C15.7757 10.4008 15.9789 10.0906 16.2957 10.0242C16.6297 9.9543 16.7054 9.89922 16.9797 9.62109C17.2445 9.35313 17.1414 9.0375 17.039 8.89336C16.9468 8.76406 16.7789 8.63789 16.5007 8.7707C16.0351 8.99297 15.5429 9.20625 15.0968 9.26016C14.6227 9.31719 14.1426 9.08203 13.8449 8.6457Z" fill="#006FCE"/>
<path d="M5 3.83594C5.32359 3.83594 5.58594 3.57359 5.58594 3.25V2.58594C5.58594 2.26234 5.32359 2 5 2C4.67641 2 4.41406 2.26234 4.41406 2.58594V3.25C4.41406 3.57359 4.67641 3.83594 5 3.83594Z" fill="#006FCE"/>
<path d="M3.08594 5.08594H3.75C4.07359 5.08594 4.33594 4.82359 4.33594 4.5C4.33594 4.17641 4.07359 3.91406 3.75 3.91406H3.08594C2.76234 3.91406 2.5 4.17641 2.5 4.5C2.5 4.82359 2.76234 5.08594 3.08594 5.08594Z" fill="#006FCE"/>
<path d="M5 6.96094C5.32359 6.96094 5.58594 6.69859 5.58594 6.375V5.75C5.58594 5.42641 5.32359 5.16406 5 5.16406C4.67641 5.16406 4.41406 5.42641 4.41406 5.75V6.375C4.41406 6.69859 4.67641 6.96094 5 6.96094Z" fill="#006FCE"/>
<path d="M6.25 5.08594H6.875C7.19859 5.08594 7.46094 4.82359 7.46094 4.5C7.46094 4.17641 7.19859 3.91406 6.875 3.91406H6.25C5.92641 3.91406 5.66406 4.17641 5.66406 4.5C5.66406 4.82359 5.92641 5.08594 6.25 5.08594Z" fill="#006FCE"/>
<path d="M20 17.0391C19.6764 17.0391 19.4141 17.3014 19.4141 17.625V18.25C19.4141 18.5736 19.6764 18.8359 20 18.8359C20.3236 18.8359 20.5859 18.5736 20.5859 18.25V17.625C20.5859 17.3014 20.3236 17.0391 20 17.0391Z" fill="#006FCE"/>
<path d="M18.75 18.9141H18.125C17.8014 18.9141 17.5391 19.1764 17.5391 19.5C17.5391 19.8236 17.8014 20.0859 18.125 20.0859H18.75C19.0736 20.0859 19.3359 19.8236 19.3359 19.5C19.3359 19.1764 19.0736 18.9141 18.75 18.9141Z" fill="#006FCE"/>
<path d="M20 20.1641C19.6764 20.1641 19.4141 20.4264 19.4141 20.75V21.4141C19.4141 21.7377 19.6764 22 20 22C20.3236 22 20.5859 21.7377 20.5859 21.4141V20.75C20.5859 20.4264 20.3236 20.1641 20 20.1641Z" fill="#006FCE"/>
<path d="M21.9141 18.9141H21.25C20.9264 18.9141 20.6641 19.1764 20.6641 19.5C20.6641 19.8236 20.9264 20.0859 21.25 20.0859H21.9141C22.2377 20.0859 22.5 19.8236 22.5 19.5C22.5 19.1764 22.2377 18.9141 21.9141 18.9141Z" fill="#006FCE"/>
</svg>
