<svg width="16" height="16" viewBox="0 0 16 16" fill="none" xmlns="http://www.w3.org/2000/svg">
<path d="M8.80745 2.06859C8.47732 1.39966 7.52346 1.39967 7.19333 2.06859L5.62136 5.25373L2.10634 5.7645C1.36814 5.87176 1.07339 6.77894 1.60755 7.29962L4.15104 9.77891L3.55061 13.2797C3.42451 14.0149 4.1962 14.5756 4.85646 14.2285L8.00039 12.5756L11.1443 14.2285C11.8046 14.5756 12.5763 14.0149 12.4502 13.2797L11.8497 9.77891L14.3932 7.29962C14.9274 6.77894 14.6326 5.87176 13.8944 5.7645L10.3794 5.25373L8.80745 2.06859ZM0.776393 2.52117C0.603888 2.7368 0.638849 3.05144 0.85448 3.22395L2.52115 4.55728C2.73678 4.72979 3.05142 4.69483 3.22393 4.4792C3.39643 4.26357 3.36147 3.94892 3.14584 3.77641L1.47918 2.44308C1.26354 2.27058 0.948898 2.30554 0.776393 2.52117ZM15.2239 12.1459C15.3964 11.9302 15.3615 11.6156 15.1459 11.4431L13.4792 10.1097C13.2636 9.93724 12.9489 9.9722 12.7764 10.1878C12.6039 10.4035 12.6389 10.7181 12.8545 10.8906L14.5212 12.224C14.7368 12.3965 15.0514 12.3615 15.2239 12.1459ZM0.85448 11.4431C0.638849 11.6156 0.603888 11.9302 0.776393 12.1459C0.948898 12.3615 1.26354 12.3965 1.47918 12.224L3.14584 10.8906C3.36147 10.7181 3.39643 10.4035 3.22393 10.1878C3.05142 9.9722 2.73678 9.93724 2.52115 10.1097L0.85448 11.4431ZM15.2239 2.52117C15.3964 2.7368 15.3615 3.05144 15.1459 3.22395L13.4792 4.55728C13.2636 4.72979 12.9489 4.69483 12.7764 4.4792C12.6039 4.26357 12.6389 3.94892 12.8545 3.77641L14.5212 2.44308C14.7368 2.27058 15.0514 2.30554 15.2239 2.52117Z" fill="#000C0B"/>
</svg>
