<svg width="20" height="20" viewBox="0 0 20 20" fill="none" xmlns="http://www.w3.org/2000/svg">
<path d="M5.8805 2.01504L6.853 1.7219C7.95509 1.38971 9.13259 1.92657 9.60455 2.97643L10.3559 4.64786C10.7582 5.54272 10.5462 6.59439 9.82868 7.26351L8.58343 8.42473C8.54703 8.45867 8.52399 8.50451 8.51847 8.55397C8.4815 8.88492 8.70586 9.52943 9.22274 10.4247C9.59862 11.0757 9.93883 11.5323 10.2284 11.7891C10.4302 11.968 10.5412 12.0067 10.5885 11.9926L12.2638 11.4804C13.2018 11.1936 14.2183 11.5356 14.7922 12.331L15.8595 13.8102C16.5312 14.7412 16.4104 16.0256 15.5769 16.815L14.8382 17.5145C14.0412 18.2693 12.9066 18.5506 11.8493 18.2555C9.55421 17.6149 7.49645 15.6781 5.65322 12.4856C3.80743 9.28856 3.15977 6.53486 3.75682 4.22503C4.03004 3.16796 4.83515 2.33014 5.8805 2.01504ZM6.24125 3.21185C5.61404 3.40091 5.13098 3.90361 4.96704 4.53785C4.46483 6.48078 5.03888 8.92149 6.73575 11.8606C8.43036 14.7957 10.2545 16.5126 12.1853 17.0515C12.8197 17.2286 13.5005 17.0598 13.9787 16.6069L14.7173 15.9074C15.0962 15.5486 15.1511 14.9648 14.8458 14.5416L13.7785 13.0624C13.5176 12.7009 13.0556 12.5454 12.6292 12.6758L10.9498 13.1892C9.97502 13.4798 9.09029 12.6953 8.14021 11.0497C7.49996 9.94075 7.20155 9.08351 7.27619 8.41522C7.31486 8.06903 7.47617 7.74811 7.73093 7.51053L8.97618 6.34932C9.30234 6.04517 9.3987 5.56714 9.21585 5.16039L8.46446 3.48895C8.24993 3.01175 7.7147 2.76772 7.21375 2.91872L6.24125 3.21185Z" fill="#000C0B"/>
</svg>
