<svg width="24" height="24" viewBox="0 0 24 24" fill="none" xmlns="http://www.w3.org/2000/svg">
<path d="M19.3333 5.32311C19.4207 5.32392 19.5073 5.30736 19.5882 5.2744C19.6692 5.24143 19.7427 5.19273 19.8047 5.1311L21.8046 3.13027C21.926 3.00449 21.9932 2.83602 21.9917 2.66115C21.9902 2.48628 21.9201 2.319 21.7965 2.19534C21.6729 2.07169 21.5057 2.00154 21.3309 2.00003C21.1561 1.99851 20.9877 2.06573 20.862 2.18722L18.8621 4.18804C18.7718 4.28216 18.711 4.40054 18.6869 4.52872C18.6629 4.65689 18.6767 4.7893 18.7267 4.90974C18.7767 5.03017 18.8607 5.13341 18.9684 5.20683C19.0762 5.28025 19.203 5.32066 19.3333 5.32311Z" fill="#43B5FF"/>
<path d="M21.2858 7.32715H20C19.8232 7.32715 19.6536 7.39742 19.5286 7.52249C19.4036 7.64757 19.3334 7.81721 19.3334 7.99409C19.3334 8.17097 19.4036 8.34061 19.5286 8.46569C19.6536 8.59077 19.8232 8.66103 20 8.66103H21.2858C21.4626 8.66103 21.6321 8.59077 21.7572 8.46569C21.8822 8.34061 21.9524 8.17097 21.9524 7.99409C21.9524 7.81721 21.8822 7.64757 21.7572 7.52249C21.6321 7.39742 21.4626 7.32715 21.2858 7.32715Z" fill="#43B5FF"/>
<path d="M16.0001 4.65928C16.1769 4.65928 16.3465 4.58901 16.4715 4.46393C16.5965 4.33886 16.6668 4.16922 16.6668 3.99234V2.706C16.6668 2.52912 16.5965 2.35948 16.4715 2.23441C16.3465 2.10933 16.1769 2.03906 16.0001 2.03906C15.8233 2.03906 15.6538 2.10933 15.5288 2.23441C15.4037 2.35948 15.3335 2.52912 15.3335 2.706V3.99234C15.3335 4.16922 15.4037 4.33886 15.5288 4.46393C15.6538 4.58901 15.8233 4.65928 16.0001 4.65928Z" fill="#43B5FF"/>
<path d="M20.862 13.801C20.9893 13.9218 21.158 13.9891 21.3334 13.9891C21.5088 13.9891 21.6775 13.9218 21.8047 13.801C21.8666 13.7391 21.9157 13.6656 21.9493 13.5847C21.9828 13.5038 22 13.4171 22 13.3295C22 13.2419 21.9828 13.1552 21.9493 13.0743C21.9157 12.9934 21.8666 12.9199 21.8047 12.858L19.8048 10.8571C19.679 10.7357 19.5106 10.6684 19.3358 10.6699C19.161 10.6715 18.9938 10.7416 18.8702 10.8653C18.7466 10.9889 18.6765 11.1562 18.675 11.3311C18.6735 11.5059 18.7407 11.6744 18.8621 11.8002L20.862 13.801Z" fill="#43B5FF"/>
<path d="M12.1956 5.1311C12.3227 5.25216 12.4914 5.31967 12.6669 5.31967C12.8424 5.31967 13.0112 5.25216 13.1382 5.1311C13.2002 5.0692 13.2493 4.99569 13.2828 4.91479C13.3163 4.83388 13.3336 4.74715 13.3336 4.65957C13.3336 4.57199 13.3163 4.48527 13.2828 4.40436C13.2493 4.32345 13.2002 4.24995 13.1382 4.18804L11.1383 2.18722C11.0126 2.06573 10.8442 1.99851 10.6694 2.00003C10.4946 2.00154 10.3274 2.07169 10.2038 2.19534C10.0802 2.319 10.0101 2.48628 10.0086 2.66115C10.0071 2.83602 10.0742 3.00449 10.1957 3.13027L12.1956 5.1311Z" fill="#43B5FF"/>
<path d="M3.02474 14.2248L8.16195 15.7667C8.1784 15.7716 8.19338 15.7805 8.20555 15.7926C8.21771 15.8047 8.22667 15.8197 8.23161 15.8361L9.77256 20.9756C9.85641 21.2646 10.0298 21.5194 10.2678 21.7034C10.5058 21.8873 10.7961 21.9909 11.0967 21.9991C11.3967 22.0098 11.6926 21.9265 11.9429 21.7606C12.1932 21.5948 12.3853 21.3548 12.4925 21.0743L17.2378 8.61178C17.3364 8.35254 17.358 8.07029 17.3 7.79904C17.2419 7.52779 17.1067 7.27913 16.9106 7.08303C16.7145 6.88693 16.4659 6.75177 16.1947 6.69383C15.9235 6.63589 15.6414 6.65765 15.3824 6.75648L2.92581 11.5039C2.64521 11.6108 2.40512 11.8029 2.23924 12.0533C2.07337 12.3037 1.99004 12.5997 2.00095 12.8999C2.01186 13.2001 2.11647 13.4893 2.30009 13.727C2.48371 13.9647 2.73712 14.1386 3.02474 14.2248ZM3.40106 12.7508L15.8575 8.00353C15.8762 7.99654 15.8965 7.99508 15.916 7.9993C15.9355 8.00352 15.9534 8.01325 15.9675 8.02734C15.9817 8.04143 15.9915 8.05929 15.9958 8.07878C16 8.09828 15.9986 8.11859 15.9917 8.13732L11.2465 20.5991C11.2384 20.6189 11.2243 20.6358 11.2064 20.6474C11.1884 20.659 11.1673 20.6648 11.1459 20.6641C11.1245 20.6634 11.1038 20.6561 11.0866 20.6433C11.0695 20.6305 11.0566 20.6128 11.0498 20.5925L9.50823 15.4519C9.44003 15.2241 9.31626 15.0168 9.14807 14.8487C8.97988 14.6806 8.77254 14.557 8.54474 14.489L3.40732 12.9469C3.38666 12.9405 3.3685 12.9278 3.35538 12.9106C3.34226 12.8934 3.33484 12.8726 3.33415 12.8509C3.33346 12.8293 3.33954 12.808 3.35153 12.79C3.36353 12.772 3.38084 12.7585 3.40106 12.7508Z" fill="#43B5FF"/>
</svg>
