<svg width="13" height="17" viewBox="0 0 13 17" fill="none" xmlns="http://www.w3.org/2000/svg">
<path d="M6.48361 0.183058C6.23953 -0.0610194 5.8438 -0.0610194 5.59972 0.183058L1.43306 4.34972C1.18898 4.5938 1.18898 4.98953 1.43306 5.23361C1.67714 5.47769 2.07286 5.47769 2.31694 5.23361L5.41667 2.13388V13.5417C5.41667 13.8868 5.69649 14.1667 6.04167 14.1667C6.38684 14.1667 6.66667 13.8868 6.66667 13.5417V2.13388L9.76639 5.23361C10.0105 5.47769 10.4062 5.47769 10.6503 5.23361C10.8944 4.98953 10.8944 4.5938 10.6503 4.34972L6.48361 0.183058ZM0.625 15.4167C0.279822 15.4167 0 15.6965 0 16.0417C0 16.3868 0.279822 16.6667 0.625 16.6667H11.4583C11.8035 16.6667 12.0833 16.3868 12.0833 16.0417C12.0833 15.6965 11.8035 15.4167 11.4583 15.4167H0.625Z" fill="#000C0B"/>
</svg>
