<svg width="20" height="20" viewBox="0 0 20 20" fill="none" xmlns="http://www.w3.org/2000/svg">
<path d="M10 7.50383C11.841 7.50383 13.3333 8.99622 13.3333 10.8372C13.3333 12.6781 11.841 14.1705 10 14.1705C8.15907 14.1705 6.66668 12.6781 6.66668 10.8372C6.66668 8.99622 8.15907 7.50383 10 7.50383ZM10 8.75383C8.84942 8.75383 7.91668 9.68657 7.91668 10.8372C7.91668 11.9878 8.84942 12.9205 10 12.9205C11.1506 12.9205 12.0833 11.9878 12.0833 10.8372C12.0833 9.68657 11.1506 8.75383 10 8.75383ZM10 4.58331C13.8446 4.58331 17.1634 7.20832 18.0843 10.887C18.1681 11.2218 17.9646 11.5612 17.6298 11.645C17.2949 11.7289 16.9555 11.5254 16.8717 11.1905C16.0893 8.06494 13.2678 5.83331 10 5.83331C6.73079 5.83331 3.90843 8.06687 3.1274 11.1943C3.04376 11.5292 2.70448 11.7328 2.36959 11.6492C2.03469 11.5656 1.83101 11.2263 1.91465 10.8914C2.83389 7.21058 6.15375 4.58331 10 4.58331Z" fill="#000C0B"/>
</svg>
