<svg width="20" height="20" viewBox="0 0 20 20" fill="none" xmlns="http://www.w3.org/2000/svg">
<path d="M10 1.66602C14.6031 1.66602 18.3347 5.39755 18.3347 10.0006C18.3347 14.6037 14.6031 18.3353 10 18.3353C5.39694 18.3353 1.66541 14.6037 1.66541 10.0006C1.66541 5.39755 5.39694 1.66602 10 1.66602ZM12.4491 13.7504H7.55094C8.09431 15.7622 9.03877 17.0853 10 17.0853C10.9613 17.0853 11.9058 15.7622 12.4491 13.7504ZM6.25696 13.7509L3.98822 13.7508C4.78684 15.0283 5.98137 16.033 7.40002 16.593C6.96479 15.9098 6.60564 15.0545 6.34147 14.0801L6.25696 13.7509ZM16.0118 13.7508L13.7431 13.7509C13.4733 14.8624 13.0836 15.8339 12.5992 16.593C13.93 16.068 15.063 15.1522 15.8575 13.9871L16.0118 13.7508ZM5.91122 8.33343H3.11321L3.10925 8.34777C2.98251 8.87807 2.91541 9.43152 2.91541 10.0006C2.91541 10.8808 3.0759 11.7234 3.36921 12.5009L6.01351 12.5006C5.89493 11.7097 5.83207 10.8695 5.83207 10.0006C5.83207 9.43063 5.85912 8.87296 5.91122 8.33343ZM12.8308 8.33349H7.16926C7.11257 8.86704 7.08207 9.42513 7.08207 10.0006C7.08207 10.8836 7.15386 11.7255 7.28185 12.5007H12.7182C12.8462 11.7255 12.918 10.8836 12.918 10.0006C12.918 9.42513 12.8875 8.86704 12.8308 8.33349ZM16.8872 8.33274L14.0888 8.33345C14.1409 8.87296 14.168 9.43063 14.168 10.0006C14.168 10.8695 14.1051 11.7097 13.9866 12.5006L16.6309 12.5009C16.9242 11.7234 17.0847 10.8808 17.0847 10.0006C17.0847 9.42614 17.0163 8.8676 16.8872 8.33274ZM7.40091 3.40827L7.38182 3.41553C5.67572 4.09446 4.29571 5.41722 3.54182 7.08377L6.08192 7.08407C6.34305 5.62341 6.79875 4.35181 7.40091 3.40827ZM10 2.91602L9.90365 2.92043C8.84912 3.0169 7.83039 4.6852 7.35729 7.08373H12.6428C12.171 4.69192 11.1566 3.02625 10.1053 2.92128L10 2.91602ZM12.6 3.40832L12.6891 3.5534C13.2467 4.48045 13.6702 5.69702 13.9181 7.08407L16.4582 7.08377C15.7377 5.49093 14.4452 4.21215 12.8427 3.50938L12.6 3.40832Z" fill="#000C0B"/>
</svg>
