<svg width="20" height="20" viewBox="0 0 20 20" fill="none" xmlns="http://www.w3.org/2000/svg">
<path d="M4.86915 3.8069C7.70283 0.973222 12.2971 0.973222 15.1308 3.8069C17.9645 6.64057 17.9645 11.2349 15.1308 14.0685L14.1417 15.0468C13.4126 15.7624 12.4666 16.6823 11.3034 17.8069C10.5766 18.5097 9.42339 18.5096 8.69663 17.8067L5.78738 14.9768C5.42174 14.6178 5.11569 14.3151 4.86915 14.0685C2.03548 11.2349 2.03548 6.64057 4.86915 3.8069ZM14.2469 4.69078C11.9014 2.34526 8.09856 2.34526 5.75304 4.69078C3.40752 7.0363 3.40752 10.8391 5.75304 13.1847L6.99227 14.4075C7.67469 15.0754 8.53257 15.9091 9.56564 16.9082C9.80789 17.1425 10.1923 17.1426 10.4346 16.9083L13.2636 14.1571C13.6544 13.7735 13.9822 13.4494 14.2469 13.1847C16.5924 10.8391 16.5924 7.0363 14.2469 4.69078ZM9.99998 6.66578C11.3814 6.66578 12.5013 7.78564 12.5013 9.16707C12.5013 10.5485 11.3814 11.6684 9.99998 11.6684C8.61855 11.6684 7.49868 10.5485 7.49868 9.16707C7.49868 7.78564 8.61855 6.66578 9.99998 6.66578ZM9.99998 7.91578C9.30891 7.91578 8.74868 8.476 8.74868 9.16707C8.74868 9.85814 9.30891 10.4184 9.99998 10.4184C10.691 10.4184 11.2513 9.85814 11.2513 9.16707C11.2513 8.476 10.691 7.91578 9.99998 7.91578Z" fill="#000C0B"/>
</svg>
