<svg width="20" height="20" viewBox="0 0 20 20" fill="none" xmlns="http://www.w3.org/2000/svg">
<path d="M10 12.9167C10.6904 12.9167 11.25 12.357 11.25 11.6667C11.25 10.9763 10.6904 10.4167 10 10.4167C9.30965 10.4167 8.75001 10.9763 8.75001 11.6667C8.75001 12.357 9.30965 12.9167 10 12.9167ZM6.66668 5.00002C6.66668 3.15907 8.15906 1.66669 10 1.66669C11.841 1.66669 13.3333 3.15907 13.3333 5.00002V5.83335H13.9583C15.4541 5.83335 16.6667 7.04592 16.6667 8.54169V14.7917C16.6667 16.2875 15.4541 17.5 13.9583 17.5H6.04168C4.54591 17.5 3.33334 16.2875 3.33334 14.7917V8.54169C3.33334 7.04592 4.54591 5.83335 6.04168 5.83335H6.66668V5.00002ZM10 2.91669C8.84942 2.91669 7.91668 3.84943 7.91668 5.00002V5.83335H12.0833V5.00002C12.0833 3.84943 11.1506 2.91669 10 2.91669ZM6.04168 7.08335C5.23626 7.08335 4.58334 7.73627 4.58334 8.54169V14.7917C4.58334 15.5971 5.23626 16.25 6.04168 16.25H13.9583C14.7638 16.25 15.4167 15.5971 15.4167 14.7917V8.54169C15.4167 7.73627 14.7638 7.08335 13.9583 7.08335H6.04168Z" fill="#000C0B"/>
</svg>
