<svg width="20" height="20" viewBox="0 0 20 20" fill="none" xmlns="http://www.w3.org/2000/svg">
<path d="M4.37502 3.33301H15.625C17.0692 3.33301 18.2494 4.46339 18.3291 5.88765L18.3334 6.04134V13.958C18.3334 15.4022 17.203 16.5824 15.7787 16.6621L15.625 16.6663H4.37502C2.93083 16.6663 1.75065 15.536 1.67097 14.1117L1.66669 13.958V6.04134C1.66669 4.59715 2.79707 3.41697 4.22133 3.33729L4.37502 3.33301H15.625H4.37502ZM17.0834 7.81051L10.2911 11.3861C10.1349 11.4683 9.95263 11.48 9.78899 11.4213L9.70893 11.3861L2.91669 7.81134V13.958C2.91669 14.7232 3.50595 15.3507 4.25541 15.4115L4.37502 15.4163H15.625C16.3902 15.4163 17.0177 14.8271 17.0785 14.0776L17.0834 13.958V7.81051ZM15.625 4.58301H4.37502C3.60988 4.58301 2.98236 5.17227 2.92152 5.92174L2.91669 6.04134V6.39884L10 10.1267L17.0834 6.39801V6.04134C17.0834 5.2762 16.4941 4.64868 15.7446 4.58784L15.625 4.58301Z" fill="#000C0B"/>
</svg>
