<svg width="24" height="24" viewBox="0 0 24 24" fill="none" xmlns="http://www.w3.org/2000/svg">
<path d="M13.211 3.10263C12.7158 2.09925 11.285 2.09926 10.7898 3.10263L8.43187 7.88036L3.15935 8.6465C2.05204 8.8074 1.60991 10.1682 2.41116 10.9492L6.2264 14.6681L5.32574 19.9193C5.13659 21.0222 6.29413 21.8632 7.28452 21.3425L12.0004 18.8632L16.7163 21.3425C17.7067 21.8632 18.8642 21.0222 18.6751 19.9193L17.7744 14.6681L21.5897 10.9492C22.3909 10.1682 21.9488 8.8074 20.8415 8.6465L15.569 7.88036L13.211 3.10263ZM1.16442 3.78151C0.905665 4.10495 0.958106 4.57692 1.28155 4.83568L3.78155 6.83568C4.105 7.09444 4.57697 7.042 4.83572 6.71855C5.09448 6.3951 5.04204 5.92313 4.71859 5.66438L2.21859 3.66438C1.89515 3.40562 1.42318 3.45806 1.16442 3.78151ZM22.8357 18.2185C23.0945 17.8951 23.0421 17.4231 22.7186 17.1644L20.2186 15.1644C19.8952 14.9056 19.4232 14.9581 19.1644 15.2815C18.9057 15.605 18.9581 16.0769 19.2816 16.3357L21.7816 18.3357C22.105 18.5944 22.577 18.542 22.8357 18.2185ZM1.28155 17.1644C0.958106 17.4231 0.905665 17.8951 1.16442 18.2186C1.42318 18.542 1.89515 18.5944 2.21859 18.3357L4.71859 16.3357C5.04204 16.0769 5.09448 15.605 4.83572 15.2815C4.57697 14.9581 4.105 14.9056 3.78155 15.1644L1.28155 17.1644ZM22.8357 3.78151C23.0945 4.10495 23.0421 4.57692 22.7186 4.83568L20.2186 6.83568C19.8952 7.09444 19.4232 7.042 19.1644 6.71855C18.9057 6.3951 18.9581 5.92313 19.2816 5.66438L21.7816 3.66438C22.105 3.40562 22.577 3.45806 22.8357 3.78151Z" fill="#978EA3"/>
</svg>
