<svg width="20" height="20" viewBox="0 0 20 20" fill="none" xmlns="http://www.w3.org/2000/svg">
<path d="M9.99999 1.66357C13.3749 1.66357 16.1305 4.32586 16.2465 7.70445L16.25 7.91357V11.3277L17.4 13.9577C17.4575 14.0893 17.4872 14.2314 17.4872 14.3751C17.4872 14.9504 17.0209 15.4167 16.4456 15.4167L12.5 15.418C12.5 16.7987 11.3807 17.918 9.99999 17.918C8.66859 17.918 7.58027 16.8772 7.50423 15.5649L7.49961 15.4161L3.56238 15.4167C3.4196 15.4167 3.27834 15.3874 3.14738 15.3305C2.61971 15.1013 2.37775 14.4877 2.60695 13.9601L3.74999 11.3285V7.91348C3.75049 4.45116 6.5434 1.66357 9.99999 1.66357ZM11.2496 15.4161L8.74999 15.418C8.74999 16.1083 9.30964 16.668 9.99999 16.668C10.6497 16.668 11.1837 16.1722 11.2443 15.5384L11.2496 15.4161ZM9.99999 2.91357C7.23319 2.91357 5.00039 5.14212 4.99999 7.91357V11.5883L3.88001 14.1667H16.1271L15 11.5891L15.0001 7.92429L14.997 7.73662C14.9044 5.04206 12.7013 2.91357 9.99999 2.91357Z" fill="#000C0B"/>
</svg>
