<svg width="24" height="24" viewBox="0 0 24 24" fill="none" xmlns="http://www.w3.org/2000/svg">
<path d="M12.0067 12.6665C11.2155 12.6665 10.4422 12.4319 9.78439 11.9924C9.12659 11.5529 8.6139 10.9281 8.31115 10.1972C8.0084 9.46633 7.92919 8.66207 8.08353 7.88614C8.23787 7.11022 8.61883 6.39749 9.17824 5.83808C9.73765 5.27867 10.4504 4.89771 11.2263 4.74336C12.0022 4.58902 12.8065 4.66824 13.5374 4.97099C14.2683 5.27374 14.893 5.78643 15.3325 6.44422C15.7721 7.10202 16.0067 7.87538 16.0067 8.6665C16.0067 9.72737 15.5852 10.7448 14.8351 11.4949C14.0849 12.2451 13.0675 12.6665 12.0067 12.6665ZM12.0067 5.99984C11.4793 5.99984 10.9637 6.15624 10.5251 6.44925C10.0866 6.74227 9.74482 7.15875 9.54299 7.64601C9.34116 8.13328 9.28835 8.66946 9.39124 9.18674C9.49414 9.70403 9.74811 10.1792 10.1211 10.5521C10.494 10.9251 10.9691 11.179 11.4864 11.2819C12.0037 11.3848 12.5399 11.332 13.0272 11.1302C13.5144 10.9283 13.9309 10.5866 14.2239 10.148C14.5169 9.70949 14.6733 9.19392 14.6733 8.6665C14.6733 7.95926 14.3924 7.28098 13.8923 6.78089C13.3922 6.28079 12.7139 5.99984 12.0067 5.99984Z" fill="#C08FFF"/>
<path d="M12.0066 22.0003C10.5283 21.9994 9.06851 21.6706 7.73245 21.0377C6.39639 20.4049 5.21727 19.4836 4.27999 18.3403L3.93332 17.9137L4.27999 17.4937C5.21806 16.3519 6.39753 15.4322 7.73355 14.8007C9.06957 14.1693 10.5289 13.8418 12.0066 13.8418C13.4844 13.8418 14.9437 14.1693 16.2797 14.8007C17.6158 15.4322 18.7952 16.3519 19.7333 17.4937L20.08 17.9137L19.7333 18.3403C18.796 19.4836 17.6169 20.4049 16.2808 21.0377C14.9448 21.6706 13.485 21.9994 12.0066 22.0003ZM5.67998 17.9203C6.49081 18.7884 7.47141 19.4804 8.5609 19.9536C9.65039 20.4268 10.8255 20.6709 12.0133 20.6709C13.2011 20.6709 14.3762 20.4268 15.4657 19.9536C16.5552 19.4804 17.5358 18.7884 18.3466 17.9203C17.5358 17.0523 16.5552 16.3603 15.4657 15.8871C14.3762 15.4139 13.2011 15.1698 12.0133 15.1698C10.8255 15.1698 9.65039 15.4139 8.5609 15.8871C7.47141 16.3603 6.49081 17.0523 5.67998 17.9203Z" fill="#C08FFF"/>
<path d="M12.0067 22C9.73517 22.0015 7.53083 21.2296 5.75647 19.8114C3.9821 18.3932 2.74344 16.4131 2.24437 14.1971C1.74529 11.9811 2.01552 9.66125 3.0106 7.6193C4.00568 5.57736 5.6663 3.93503 7.71914 2.96263C9.77199 1.99023 12.0947 1.7457 14.3051 2.2693C16.5154 2.79289 18.4816 4.0534 19.8801 5.84337C21.2786 7.63334 22.026 9.84609 21.9993 12.1174C21.9726 14.3888 21.1735 16.5834 19.7333 18.34C18.796 19.4833 17.6169 20.4045 16.2809 21.0374C14.9448 21.6702 13.485 21.999 12.0067 22ZM12.0067 3.33334C10.2926 3.33334 8.61696 3.84163 7.19173 4.79394C5.76651 5.74624 4.65568 7.09979 3.99972 8.68341C3.34376 10.267 3.17213 12.0096 3.50654 13.6908C3.84094 15.372 4.66636 16.9162 5.87842 18.1283C7.09047 19.3403 8.63472 20.1657 10.3159 20.5001C11.9971 20.8345 13.7396 20.6629 15.3233 20.007C16.9069 19.351 18.2604 18.2402 19.2127 16.8149C20.165 15.3897 20.6733 13.7141 20.6733 12C20.6733 9.70146 19.7602 7.49706 18.1349 5.87175C16.5096 4.24643 14.3052 3.33334 12.0067 3.33334Z" fill="#C08FFF"/>
<path d="M4.79335 17.9198C4.79335 17.9198 11.5067 25.4198 18.34 18.6665L19.22 17.9198C19.22 17.9198 13.5133 11.9998 7.72002 15.5532L4.79335 17.9198Z" fill="#C08FFF"/>
<path d="M12.0067 12.0002C13.8476 12.0002 15.34 10.5078 15.34 8.66683C15.34 6.82588 13.8476 5.3335 12.0067 5.3335C10.1657 5.3335 8.67334 6.82588 8.67334 8.66683C8.67334 10.5078 10.1657 12.0002 12.0067 12.0002Z" fill="#C08FFF"/>
</svg>
