<svg width="28" height="28" viewBox="0 0 28 28" fill="none" xmlns="http://www.w3.org/2000/svg">
<path fill-rule="evenodd" clip-rule="evenodd" d="M9.45236 2.33325H9.46746C9.95071 2.33325 10.3425 2.725 10.3425 3.20825C10.3425 3.6915 9.95071 4.08325 9.46746 4.08325C8.5544 4.08325 7.63023 4.08351 6.8491 4.12606C6.45914 4.14731 6.12257 4.17827 5.85247 4.22125C5.56528 4.26694 5.4213 4.31626 5.37325 4.34075C4.92871 4.56725 4.5673 4.92867 4.34079 5.3732C4.31631 5.42126 4.26699 5.56524 4.22129 5.85242C4.17832 6.12252 4.14735 6.45909 4.12611 6.84905C4.08356 7.63018 4.0833 8.55435 4.0833 9.46742C4.0833 9.95067 3.69155 10.3424 3.2083 10.3424C2.72505 10.3424 2.3333 9.95067 2.3333 9.46742V9.45232C2.3333 8.55641 2.33329 7.58734 2.3787 6.75385C2.40157 6.33416 2.43676 5.93111 2.49303 5.57745C2.54658 5.24087 2.62959 4.87693 2.78153 4.57872C3.17581 3.8049 3.80495 3.17577 4.57876 2.78149C4.87697 2.62954 5.24091 2.54654 5.5775 2.49299C5.93116 2.43672 6.33421 2.40152 6.7539 2.37866C7.58739 2.33325 8.55646 2.33325 9.45236 2.33325ZM17.6575 3.20825C17.6575 2.725 18.0492 2.33325 18.5325 2.33325H18.5476C19.4435 2.33325 20.4125 2.33325 21.246 2.37866C21.6657 2.40152 22.0688 2.43672 22.4224 2.49299C22.759 2.54654 23.123 2.62954 23.4212 2.78149C24.195 3.17577 24.8241 3.8049 25.2184 4.57872C25.3703 4.87693 25.4533 5.24087 25.5069 5.57745C25.5632 5.93111 25.5984 6.33416 25.6212 6.75385C25.6666 7.58734 25.6666 8.55642 25.6666 9.45232V9.46742C25.6666 9.95067 25.2749 10.3424 24.7916 10.3424C24.3084 10.3424 23.9166 9.95067 23.9166 9.46742C23.9166 8.55435 23.9164 7.63018 23.8738 6.84905C23.8526 6.45909 23.8216 6.12252 23.7786 5.85242C23.7329 5.56524 23.6836 5.42126 23.6591 5.3732C23.4326 4.92867 23.0712 4.56725 22.6267 4.34075C22.5786 4.31626 22.4346 4.26694 22.1475 4.22125C21.8774 4.17827 21.5408 4.14731 21.1508 4.12606C20.3697 4.08351 19.4455 4.08325 18.5325 4.08325C18.0492 4.08325 17.6575 3.6915 17.6575 3.20825ZM3.2083 17.6574C3.69155 17.6574 4.0833 18.0492 4.0833 18.5324C4.0833 19.4455 4.08356 20.3697 4.12611 21.1508C4.14735 21.5407 4.17832 21.8773 4.22129 22.1474C4.26699 22.4346 4.31631 22.5786 4.34079 22.6266C4.5673 23.0712 4.92871 23.4326 5.37325 23.6591C5.4213 23.6836 5.56528 23.7329 5.85247 23.7786C6.12257 23.8216 6.45913 23.8525 6.84909 23.8738C7.63022 23.9163 8.5544 23.9166 9.46746 23.9166C9.95071 23.9166 10.3425 24.3083 10.3425 24.7916C10.3425 25.2748 9.95071 25.6666 9.46746 25.6666H9.45237C8.55647 25.6666 7.58739 25.6666 6.7539 25.6212C6.33421 25.5983 5.93116 25.5631 5.5775 25.5068C5.24091 25.4533 4.87697 25.3703 4.57876 25.2183C3.80494 24.8241 3.17581 24.1949 2.78153 23.4211C2.62959 23.1229 2.54658 22.759 2.49303 22.4224C2.43676 22.0687 2.40157 21.6657 2.3787 21.246C2.33329 20.4125 2.3333 19.4434 2.3333 18.5475V18.5324C2.3333 18.0492 2.72505 17.6574 3.2083 17.6574ZM24.7916 17.6574C25.2749 17.6574 25.6666 18.0492 25.6666 18.5324V18.5475C25.6666 19.4434 25.6666 20.4125 25.6212 21.246C25.5984 21.6657 25.5632 22.0687 25.5069 22.4224C25.4533 22.759 25.3703 23.1229 25.2184 23.4211C24.8241 24.1949 24.195 24.8241 23.4212 25.2183C23.123 25.3703 22.759 25.4533 22.4224 25.5068C22.0688 25.5631 21.6657 25.5983 21.246 25.6212C20.4125 25.6666 19.4435 25.6666 18.5476 25.6666H18.5325C18.0492 25.6666 17.6575 25.2748 17.6575 24.7916C17.6575 24.3083 18.0492 23.9166 18.5325 23.9166C19.4455 23.9166 20.3697 23.9163 21.1508 23.8738C21.5408 23.8525 21.8774 23.8216 22.1475 23.7786C22.4346 23.7329 22.5786 23.6836 22.6267 23.6591C23.0712 23.4326 23.4326 23.0712 23.6591 22.6266C23.6836 22.5786 23.7329 22.4346 23.7786 22.1474C23.8216 21.8773 23.8526 21.5407 23.8738 21.1508C23.9164 20.3697 23.9166 19.4455 23.9166 18.5324C23.9166 18.0492 24.3084 17.6574 24.7916 17.6574Z" fill="#978EA3"/>
<path fill-rule="evenodd" clip-rule="evenodd" d="M15.0791 8.60408H12.9208C11.4098 8.60408 10.6543 8.60408 10.0772 8.89814C9.56957 9.1568 9.15685 9.56953 8.89819 10.0772C8.60413 10.6543 8.60413 11.4098 8.60413 12.9208V13.1249H3.2083C2.72505 13.1249 2.3333 13.5167 2.3333 13.9999C2.3333 14.4832 2.72505 14.8749 3.2083 14.8749H8.60413V15.0791C8.60413 16.5901 8.60413 17.3455 8.89819 17.9227C9.15685 18.4303 9.56957 18.843 10.0772 19.1017C10.6543 19.3958 11.4098 19.3958 12.9208 19.3958H15.0791C16.5901 19.3958 17.3456 19.3958 17.9227 19.1017C18.4304 18.843 18.8431 18.4303 19.1017 17.9227C19.3958 17.3455 19.3958 16.5901 19.3958 15.0791V14.8749H24.7916C25.2749 14.8749 25.6666 14.4832 25.6666 13.9999C25.6666 13.5167 25.2749 13.1249 24.7916 13.1249H19.3958V12.9208C19.3958 11.4098 19.3958 10.6543 19.1017 10.0772C18.8431 9.56953 18.4304 9.1568 17.9227 8.89814C17.3456 8.60408 16.5901 8.60408 15.0791 8.60408ZM19.3958 13.1249H8.60413V14.8749H19.3958V13.1249Z" fill="#978EA3"/>
</svg>
