<svg width="24" height="24" viewBox="0 0 24 24" fill="none" xmlns="http://www.w3.org/2000/svg">
<path d="M13.0571 7.43126C14.0335 6.45495 15.6164 6.45495 16.5927 7.43126C17.569 8.40757 17.569 9.99048 16.5927 10.9668C15.6164 11.9431 14.0335 11.9431 13.0571 10.9668C12.0808 9.99048 12.0808 8.40757 13.0571 7.43126ZM15.532 8.49192C15.1415 8.10139 14.5083 8.10139 14.1178 8.49192C13.7273 8.88244 13.7273 9.51561 14.1178 9.90613C14.5083 10.2967 15.1415 10.2967 15.532 9.90613C15.9225 9.51561 15.9225 8.88244 15.532 8.49192ZM21.5085 4.32265C21.2398 3.45785 20.5625 2.78081 19.6976 2.51238L19.0355 2.30692C16.642 1.56409 14.0339 2.20851 12.2618 3.98062L11.2659 4.9765C9.89619 3.94786 7.94313 4.0567 6.69682 5.30302L5.45429 6.54555C5.1614 6.83844 5.1614 7.31331 5.45429 7.60621L7.04526 9.19718L6.86545 9.37699C6.18203 10.0604 6.18203 11.1684 6.86545 11.8519L7.3608 12.3472L5.96524 13.1432C5.7621 13.259 5.62463 13.463 5.59349 13.6948C5.56236 13.9266 5.64112 14.1596 5.80648 14.325L9.69559 18.2141C9.86084 18.3793 10.0937 18.4581 10.3253 18.4271C10.5569 18.3962 10.7609 18.259 10.8769 18.0562L11.6749 16.6613L12.172 17.1584C12.8554 17.8419 13.9635 17.8419 14.6469 17.1584L14.8237 16.9816L16.4133 18.5712C16.7062 18.8641 17.181 18.8641 17.4739 18.5712L18.7165 17.3287C19.9623 16.0829 20.0715 14.1308 19.0442 12.7612L20.0421 11.7632C21.8149 9.99043 22.4591 7.38111 21.715 4.98696L21.5085 4.32265ZM19.253 3.94498C19.6461 4.06699 19.954 4.37473 20.0761 4.76783L20.2826 5.43213C20.8613 7.29426 20.3603 9.32372 18.9814 10.7026L13.5862 16.0978C13.4886 16.1954 13.3303 16.1954 13.2327 16.0978L7.92611 10.7912C7.82848 10.6936 7.82848 10.5353 7.92611 10.4377L13.3225 5.04128C14.7008 3.66297 16.7293 3.16176 18.5909 3.73951L19.253 3.94498ZM17.9641 13.8413C18.4166 14.607 18.3138 15.61 17.6558 16.2681L16.9436 16.9803L15.8843 15.921L17.9641 13.8413ZM7.75748 6.36368C8.41599 5.70516 9.42002 5.60275 10.186 6.05644L8.10592 8.13652L7.04528 7.07588L7.75748 6.36368ZM10.5756 15.562L10.0622 16.4594L7.56207 13.9592L8.46044 13.4469L10.5756 15.562ZM6.68984 18.3947C6.98273 18.1018 6.98273 17.6269 6.68984 17.334C6.39695 17.0411 5.92207 17.0411 5.62918 17.334L3.15431 19.8089C2.86141 20.1018 2.86141 20.5767 3.15431 20.8696C3.4472 21.1625 3.92207 21.1625 4.21497 20.8696L6.68984 18.3947ZM4.74526 15.3895C5.03815 15.6824 5.03815 16.1573 4.74526 16.4501L3.6846 17.5108C3.39171 17.8037 2.91683 17.8037 2.62394 17.5108C2.33105 17.2179 2.33105 16.743 2.62394 16.4501L3.6846 15.3895C3.97749 15.0966 4.45237 15.0966 4.74526 15.3895ZM8.63235 20.3413C8.92525 20.0484 8.92526 19.5736 8.63237 19.2807C8.33948 18.9878 7.86461 18.9878 7.57171 19.2807L6.5131 20.3392C6.22021 20.6321 6.2202 21.107 6.51309 21.3999C6.80598 21.6928 7.28085 21.6928 7.57375 21.3999L8.63235 20.3413Z" fill="#1AC461"/>
</svg>
